<svg width="362" height="82" viewBox="0 0 362 82" fill="none" xmlns="http://www.w3.org/2000/svg">
<path d="M138.226 76.885C137.333 76.885 136.423 76.8695 135.504 76.8437C134.585 76.8179 133.676 76.694 132.782 76.4772C132.307 76.4772 131.913 76.2656 131.595 75.8321C131.282 75.4037 131.125 74.9186 131.125 74.3766C131.125 73.0863 131.191 71.7857 131.322 70.4696C131.454 69.1483 131.519 67.8735 131.519 66.6348C131.782 61.422 131.858 56.3021 131.752 51.2699C131.646 46.2481 131.676 33.1747 131.833 28.0135C132.04 25.4846 132.146 22.9607 132.146 20.4317C132.146 17.9027 132.277 15.3531 132.54 12.7674C132.646 12.6641 132.747 12.5403 132.853 12.4061C132.959 12.2719 133.09 12.148 133.247 12.0396C133.509 11.828 133.843 11.7041 134.232 11.6783C134.625 11.6525 134.954 11.6938 135.221 11.8022C139.903 11.9106 144.56 11.9622 149.191 11.9622C153.817 11.9622 158.504 12.0964 163.237 12.3648C163.55 12.3648 163.893 12.499 164.262 12.7674C164.787 13.2525 165.131 13.846 165.287 14.5428C165.287 16.4266 165.206 18.2795 165.05 20.1066C164.893 21.9337 164.817 23.7865 164.817 25.6704C164.711 31.0483 164.646 44.3436 164.62 49.6132C164.595 54.8828 164.474 60.1782 164.267 65.4994C164.267 67.3264 164.292 69.1432 164.343 70.9444C164.393 72.7457 164.186 74.5366 163.711 76.3069C163.55 76.6321 163.317 76.8695 162.999 77.0346C162.843 77.1482 162.686 77.2359 162.53 77.3185C162.373 77.4011 162.186 77.4424 161.979 77.4424C160.923 77.2308 159.873 77.1224 158.822 77.1224C157.767 77.1224 156.716 77.0398 155.666 76.8798C155.403 76.8798 155.115 76.7559 154.797 76.5185C154.484 76.2759 154.247 76.0179 154.085 75.7495C153.822 75.3779 153.691 75.0218 153.691 74.7018C153.903 73.0863 154.035 71.5018 154.085 69.9432C154.136 68.3845 154.242 66.7948 154.403 65.1845H141.221C141.115 66.9032 140.994 68.5858 140.868 70.227C140.737 71.8683 140.671 73.5457 140.671 75.2695C140.671 75.7495 140.489 76.1572 140.12 76.4772C139.858 76.7508 139.57 76.8798 139.252 76.8798C138.934 76.8798 138.595 76.885 138.226 76.885ZM142.252 21.5672C142.095 25.8149 141.964 38.0521 141.858 42.3256C141.752 46.599 141.646 50.8622 141.545 55.1099C143.752 55.0015 145.964 55.0273 148.171 55.1873C150.378 55.3524 152.59 55.4298 154.797 55.4298C154.903 51.1822 155.035 46.9913 155.191 42.8468C155.348 38.7076 155.378 26.5426 155.272 22.2898C153.065 22.0782 150.893 21.9698 148.757 21.9698C146.631 21.9698 144.459 21.8356 142.252 21.5672Z" fill="white"/>
<path d="M179.085 76.8847C177.924 76.9931 176.807 76.9931 175.732 76.8847C174.651 76.7815 173.535 76.7247 172.378 76.7247C172.222 76.6215 172.05 76.5131 171.863 76.4048C171.676 76.2964 171.504 76.1622 171.348 76.0022C170.979 75.6306 170.797 75.1403 170.797 74.5519C170.797 72.2913 170.888 70.0049 171.075 67.6979C171.262 65.3857 171.403 63.0993 171.509 60.8438C171.616 55.951 171.6 51.084 171.469 46.2429C171.338 41.4068 171.403 28.5142 171.666 23.513C171.873 21.7376 171.914 19.9209 171.782 18.068C171.651 16.2151 171.848 14.3726 172.378 12.5455C172.479 12.3856 172.641 12.2204 172.848 12.0604C173.06 11.9004 173.267 11.823 173.479 11.823C174.691 11.823 175.908 11.792 177.151 11.7404C178.383 11.6888 179.605 11.8488 180.818 12.2204C181.03 12.3288 181.212 12.463 181.368 12.623C181.53 12.783 181.711 12.9481 181.919 13.1081C182.131 13.5365 182.237 13.8875 182.237 14.1558C181.974 17.0616 181.813 19.9105 181.762 22.7027C181.712 25.5001 181.631 36.3231 181.53 39.2237C181.424 40.4107 181.343 41.6184 181.292 42.852C181.237 44.0906 181.262 45.2984 181.368 46.4803C181.368 47.6673 181.292 48.8338 181.136 49.9899C180.979 51.146 180.949 52.3176 181.055 53.4995C181.161 54.8465 181.186 56.1472 181.136 57.4116C181.08 58.6761 181.055 60.0077 181.055 61.4064C180.949 62.3199 180.883 63.1973 180.858 64.0231C180.828 64.8592 180.767 65.7314 180.661 66.645C184.292 66.805 207.378 66.9804 210.903 67.1714C214.429 67.3624 218.004 67.5895 221.636 67.8579C221.898 67.8579 222.186 67.9817 222.504 68.2191C222.823 68.4617 223.055 68.7198 223.217 68.9882C223.585 70.1701 223.651 71.3675 223.414 72.5803C223.176 73.788 223.055 74.9854 223.055 76.1674C223.055 76.4357 222.924 76.6783 222.661 76.8951C222.398 77.1118 222.136 77.2202 221.873 77.2202C217.929 77.1118 214.03 77.0705 210.191 77.0964C206.353 77.117 182.979 77.0447 179.085 76.8847Z" fill="white"/>
<path d="M198.827 61.0665C197.615 60.9065 196.378 60.829 195.12 60.829C193.863 60.829 192.62 60.7207 191.413 60.5039C190.989 60.5039 190.651 60.2768 190.388 59.8226C190.125 59.3684 189.994 58.9452 189.994 58.5736C189.994 56.7465 190.06 54.971 190.191 53.2524C190.317 51.5285 190.439 49.7582 190.545 47.9311C190.701 42.7699 190.757 45.6189 190.701 40.5403C190.651 35.4616 190.701 30.3365 190.863 25.1753C190.964 23.0798 191.019 20.9947 191.019 18.925C191.019 16.8554 191.146 14.8012 191.413 12.7574C191.62 12.3858 191.858 12.138 192.125 12.0296C193.282 11.7613 194.423 11.658 195.56 11.7096C196.691 11.7612 197.833 11.7922 198.994 11.7922C199.201 11.7922 199.413 11.8335 199.625 11.9109C199.833 11.9935 200.045 12.0864 200.257 12.1948C200.363 12.1948 200.519 12.3032 200.732 12.5199C200.939 12.7883 201.151 13.0309 201.363 13.2477C201.575 13.4645 201.681 13.7586 201.681 14.1354C201.1 21.6656 200.742 29.1081 200.615 36.4784C200.484 43.8434 200.232 43.2602 199.863 50.6821C202.07 50.8421 204.287 50.9763 206.494 51.0846C208.701 51.193 210.913 51.3014 213.12 51.4046C213.277 49.1492 213.348 46.8886 213.317 44.6331C213.292 42.3777 214.151 26.5017 214.307 23.3327C214.464 20.1586 214.595 16.9896 214.701 13.8154C214.701 13.6038 214.726 13.4386 214.777 13.3303C214.827 13.227 214.908 13.0928 215.014 12.9277L215.408 12.5251C215.565 12.4167 215.696 12.3341 215.802 12.2825C215.903 12.2309 216.065 12.2 216.272 12.2C217.428 12.2 218.575 12.1587 219.706 12.0812C220.838 11.9987 221.928 12.1483 222.984 12.5251C223.772 12.9535 224.171 13.6812 224.171 14.7032C224.065 16.6954 223.944 18.7083 223.812 20.7521C223.681 22.796 223.56 24.814 223.459 26.8062C223.348 33.7429 223.297 32.6797 223.297 39.5596C223.297 46.4395 223.115 53.3814 222.747 60.3645C222.641 60.4729 222.55 60.5968 222.469 60.731C222.393 60.8652 222.272 60.989 222.115 61.0923C221.903 61.2058 221.721 61.2936 221.565 61.3761C221.408 61.4587 221.221 61.5 221.014 61.5C217.277 61.2316 213.58 61.1284 209.923 61.18C206.257 61.2058 202.56 61.18 198.827 61.0665Z" fill="white"/>
<path d="M242.166 77.4075C240.954 77.2475 239.757 77.1804 238.575 77.2062C237.388 77.2321 236.191 77.1133 234.979 76.8398C234.191 76.6798 233.706 76.1946 233.52 75.3895C233.333 74.5843 233.292 73.8308 233.398 73.134C233.762 70.7702 233.924 68.4166 233.868 66.0786C233.818 63.7406 233.893 61.387 234.105 59.018C234.262 55.0387 234.287 51.0645 234.186 47.0801C234.08 43.1007 234.105 31.1473 234.262 27.168C234.262 24.9125 234.328 22.6467 234.459 20.3912C234.585 18.1358 234.706 15.8752 234.813 13.6197C234.813 13.4597 234.838 13.3255 234.893 13.2171C234.944 13.1087 235.025 12.9487 235.131 12.7371C235.232 12.6287 235.302 12.5461 235.328 12.4945C235.353 12.4429 235.419 12.412 235.525 12.412C237.212 12.1436 238.843 12.0403 240.419 12.092C241.999 12.1436 243.575 12.1745 245.156 12.1745C247.575 12.2829 249.994 12.35 252.419 12.3758C254.838 12.4016 257.232 12.4687 259.6 12.5771C259.808 12.5771 259.994 12.6081 260.151 12.6597C260.308 12.7113 260.489 12.7939 260.701 12.9023C261.489 13.5474 261.888 14.3268 261.888 15.2403C261.888 16.0455 261.833 16.8919 261.732 17.7848C261.626 18.6726 261.57 19.519 261.57 20.3241C261.57 20.5925 261.545 20.8609 261.494 21.1293C261.439 21.4028 261.363 21.6661 261.257 21.9345C261.151 22.0944 261.03 22.2596 260.903 22.4196C260.772 22.5796 260.651 22.657 260.545 22.657C257.858 22.657 255.176 22.5899 252.494 22.4557C249.813 22.3216 247.126 22.1977 244.444 22.0893C244.181 28.3292 244.01 42.4865 243.934 48.6129C243.853 54.7445 243.631 60.9277 243.262 67.1625C246.787 67.2709 263.929 67.4205 267.373 67.6063C270.818 67.7973 274.308 67.9418 277.828 68.0502C278.302 68.0502 278.722 68.1844 279.095 68.4528C279.565 68.6644 279.858 68.8812 279.964 69.0979C280.227 69.7431 280.267 70.4192 280.085 71.116C279.898 71.8128 279.858 72.4837 279.964 73.1289C279.964 73.2373 279.989 73.3456 280.045 73.4489C280.095 73.5572 280.121 73.6656 280.121 73.774C279.964 74.254 279.939 74.7289 280.045 75.183C280.146 75.6372 280.07 76.0811 279.808 76.5146C279.701 76.6746 279.58 76.8346 279.449 76.9998C279.318 77.1598 279.196 77.294 279.095 77.4024C278.358 77.6759 277.611 77.7688 276.843 77.6863C276.08 77.6088 275.302 77.5675 274.515 77.5675C271.409 77.4024 268.308 77.3663 265.201 77.4437C262.105 77.5263 245.323 77.5159 242.166 77.4075Z" fill="white"/>
<path d="M270.736 62.098C270.161 62.0361 269.646 61.8916 269.196 61.6696C268.752 61.4477 268.393 61.1587 268.13 60.8077C268.236 58.929 268.368 57.0452 268.524 55.1665C268.681 53.2879 268.837 51.404 268.999 49.5253C268.837 46.1499 268.802 42.7848 268.878 39.4352C268.954 36.0907 269.181 32.7256 269.55 29.3502C269.55 29.1902 269.651 28.9838 269.863 28.7257C270.07 28.6018 270.272 28.4986 270.454 28.416C270.635 28.3335 270.863 28.2973 271.125 28.2973C271.807 28.3283 272.575 28.3231 273.413 28.2715C274.257 28.2251 275.07 28.2148 275.863 28.2457C276.651 28.2767 277.363 28.3954 277.994 28.6019C278.625 28.8083 279.1 29.1696 279.418 29.6754C279.312 31.0792 279.166 32.4779 278.984 33.8817C278.802 35.2856 278.706 36.6843 278.706 38.0881C278.6 41.9435 278.56 45.768 278.59 49.5615C278.615 53.3549 278.418 57.1794 277.994 61.0348C277.888 61.2567 277.767 61.4735 277.64 61.68C277.509 61.8864 277.282 62.0206 276.969 62.0825C275.913 62.1496 274.878 62.1651 273.853 62.129C272.832 62.1187 271.792 62.098 270.736 62.098Z" fill="white"/>
<path d="M270.428 23.4304C269.984 23.3684 269.625 23.2859 269.363 23.1878C269.469 22.6562 268.979 13.8148 269.777 13.9542C269.777 13.9542 273.812 13.98 274.651 13.9645C275.494 13.949 276.307 13.949 277.1 13.9593C277.888 13.9697 278.6 14.0006 279.231 14.0626C279.863 14.1193 279.944 16.3542 279.944 16.7516C279.837 17.8458 279.797 18.9297 279.827 20.0033C279.853 21.0768 279.656 22.1607 279.231 23.2549C279.125 23.3168 279.004 23.3788 278.878 23.4355C278.742 23.4975 270.873 23.4923 270.428 23.4304Z" fill="white"/>
<path d="M296.282 77.2362C295.388 77.2362 294.504 77.2207 293.636 77.1949C292.767 77.1691 291.883 77.0452 290.994 76.8233C290.363 76.8233 289.913 76.5343 289.651 75.9614C289.388 75.3885 289.257 74.7691 289.257 74.1137C289.519 68.746 289.772 63.3887 290.009 58.0468C290.242 52.6998 290.232 41.2522 289.969 35.8794C289.969 34.6201 289.944 33.3195 289.893 31.9775C289.838 30.6356 289.918 29.304 290.131 27.9931C290.287 25.5828 290.312 23.1983 290.206 20.8396C290.1 18.4861 290.363 16.1016 290.994 13.6862C291.1 13.521 291.232 13.3869 291.388 13.2733C291.545 13.1649 291.701 13.0565 291.858 12.943C292.12 12.943 292.383 12.912 292.646 12.8604C292.908 12.8088 293.171 12.7778 293.434 12.7778C294.221 12.8862 295.009 12.9172 295.802 12.8604C296.59 12.8088 297.408 12.8346 298.252 12.943C298.514 13.0514 298.777 13.134 299.04 13.1856C299.302 13.2423 299.565 13.3507 299.828 13.5159C300.353 13.9546 300.802 14.4707 301.171 15.0746C301.54 15.6784 302.014 16.1997 302.595 16.6384C302.802 16.8036 302.959 17.01 303.065 17.2578C303.171 17.5003 303.328 17.7378 303.54 17.9545C304.328 18.6668 305.035 19.379 305.671 20.0913C306.307 20.8035 306.984 21.5416 307.721 22.3106C308.721 23.4099 309.666 24.4783 310.565 25.5157C311.459 26.5583 312.403 27.5699 313.408 28.5557C313.509 26.1454 313.605 23.7919 313.686 21.4848C313.762 19.1829 313.883 16.8294 314.04 14.4191C314.408 13.9236 314.843 13.5985 315.343 13.4333C315.843 13.2681 316.378 13.201 316.959 13.2269C317.54 13.2527 318.131 13.3094 318.737 13.392C319.343 13.4746 319.908 13.5159 320.434 13.5159C320.696 13.4075 320.984 13.3662 321.302 13.392C321.615 13.4178 321.908 15.5494 322.171 15.7094C322.383 15.8178 322.555 15.9416 322.686 16.0758C322.817 16.2152 322.939 16.3391 323.045 16.4474C323.252 16.8345 323.424 17.2423 323.56 17.681C323.686 18.1197 323.701 18.5584 323.6 18.9971C323.181 21.299 322.954 23.5596 322.929 25.7789C322.898 27.9982 322.888 30.2072 322.888 32.3956C322.57 39.2445 322.57 50.1037 322.888 56.8442C322.621 60.1371 322.504 63.4351 322.53 66.7538C322.555 70.0673 322.383 73.3704 322.014 76.6581C321.908 76.7665 321.807 76.8904 321.701 77.0297C321.595 77.1691 321.464 77.293 321.307 77.3962C321.095 77.5097 320.913 77.6026 320.757 77.6852C320.6 77.7678 320.444 77.8091 320.287 77.8091C319.232 77.5923 318.141 77.4942 317.009 77.5201C315.878 77.551 314.782 77.5097 313.732 77.3962C313.469 77.3962 313.242 77.3291 313.06 77.1897C312.873 77.0504 312.676 76.8749 312.469 76.653C312.307 76.4878 312.151 76.3123 311.994 76.1214C311.838 75.9252 311.757 75.7498 311.757 75.5846C312.126 71.0376 312.363 66.5318 312.469 62.0622C312.57 57.5978 312.757 47.0225 313.019 42.527C310.812 40.2251 308.651 37.9233 306.545 35.6214C304.444 33.3195 302.307 30.9659 300.156 28.5557C299.999 30.4189 299.959 32.2562 300.035 34.0627C300.11 35.8691 300.1 37.7065 299.994 39.5697C299.727 43.8432 299.56 54.1294 299.479 58.2429C299.398 62.3513 299.282 66.5422 299.12 70.8208C299.014 71.5898 298.949 72.2866 298.924 72.9162C298.893 73.5459 298.833 74.2478 298.727 75.0117C298.727 75.342 298.62 75.7756 298.413 76.3278C298.307 76.493 298.216 76.6272 298.136 76.7407C298.06 76.8491 297.964 76.9626 297.858 77.071C297.595 77.2362 297.333 77.3033 297.07 77.2775C296.807 77.2517 296.545 77.2362 296.282 77.2362Z" fill="white"/>
<path d="M336.61 77.2306C334.56 77.4009 332.398 77.2615 330.141 76.8073C329.509 76.699 329.06 76.3428 328.797 75.7441C328.535 75.1454 328.403 74.5673 328.403 73.9996C328.56 70.3764 328.691 66.7325 328.797 63.0783C328.903 59.4241 329.004 55.7854 329.11 52.1571C329.272 48.25 329.297 40.1364 329.191 36.2294C329.085 32.3171 329.166 28.41 329.429 24.4978C329.429 23.5945 329.454 22.6862 329.504 21.7778C329.555 20.8694 329.585 19.992 329.585 19.1404C329.691 18.6862 329.691 18.2475 329.585 17.8242C329.479 17.401 329.479 16.9623 329.585 16.5081C329.691 16.2242 329.742 15.9455 329.742 15.6617C329.742 15.3778 329.742 15.0939 329.742 14.81C329.742 14.5829 329.782 14.3868 329.863 14.2165C329.944 14.0462 330.035 13.8449 330.141 13.6229C330.297 13.4526 330.469 13.2823 330.656 13.112C330.838 12.9417 331.009 12.8591 331.166 12.8591C335.06 12.7455 338.964 12.761 342.888 12.9004C346.807 13.0397 350.716 13.1688 354.61 13.2823C354.974 13.2823 355.292 13.3959 355.555 13.6229C355.817 13.85 356.03 14.0462 356.186 14.2165C356.55 14.841 356.792 15.4913 356.898 16.1726C357.004 16.8539 357.03 17.5455 356.979 18.2526C356.924 18.9597 356.848 19.6823 356.742 20.4204C356.636 21.1584 356.585 21.8655 356.585 22.5416C356.585 22.7687 356.52 22.9391 356.388 23.0526C356.257 23.1662 356.141 23.3055 356.035 23.4758C355.878 23.7597 355.691 23.8991 355.484 23.8991C355.222 23.8991 354.969 23.93 354.732 23.9868C354.499 24.0436 354.272 24.0126 354.06 23.8991C351.691 23.7907 349.297 23.7132 346.878 23.6874C344.459 23.6616 342.035 23.5326 339.615 23.3055C339.353 24.7816 339.272 26.1855 339.378 27.5171C339.484 28.8487 339.403 30.2216 339.146 31.641C340.722 31.9248 342.302 31.9661 343.878 31.77C345.459 31.5687 347.035 31.5274 348.615 31.641C349.085 31.641 349.459 31.8371 349.722 32.2345C350.085 32.859 350.328 33.499 350.434 34.1494C350.54 34.7997 350.58 35.4655 350.555 36.1468C350.525 36.8281 350.489 37.5094 350.434 38.1855C350.378 38.8668 350.378 39.5429 350.434 40.2242C350.434 40.3945 350.393 40.5803 350.312 40.7764C350.237 40.9726 350.141 41.1584 350.035 41.3287C349.772 41.5558 349.535 41.7726 349.323 41.9687C349.11 42.1648 348.823 42.268 348.454 42.268C346.873 42.3816 345.297 42.3816 343.716 42.268C342.141 42.1545 340.535 42.0977 338.903 42.0977C338.797 45.4422 338.691 52.9984 338.59 56.3687C338.484 59.739 338.429 63.099 338.429 66.4383C342.06 66.7222 345.701 66.9029 349.358 66.9906C353.014 67.0732 356.656 67.3158 360.287 67.7132C360.918 68.1674 361.312 68.7196 361.474 69.3699C361.631 70.0254 361.696 70.717 361.671 71.4499C361.646 72.188 361.565 72.9364 361.434 73.7003C361.302 74.4693 361.262 75.1919 361.312 75.868C361.312 76.2654 361.196 76.6164 360.959 76.9312C360.722 77.246 360.419 77.3957 360.05 77.3957C356.156 77.5144 352.262 77.5557 348.368 77.5248C344.474 77.499 340.555 77.4009 336.61 77.2306Z" fill="white"/>
<path d="M75.9792 18.4703C76.3378 17.8045 76.6257 17.1129 76.7974 16.3851C77.2469 14.4909 76.9035 12.6639 75.7823 10.9555C74.7368 9.36069 73.3479 8.49877 71.656 8.39038C69.1762 8.22522 66.4792 9.82004 64.3429 11.5129C54.8025 5.16977 42.2065 0.266602 42.2065 0.266602C42.2065 0.266602 28.3479 4.953 17.8075 13.0665C15.5601 10.9194 12.555 9.08714 9.84288 10.8471C8.45399 11.7503 7.63076 13.149 7.46409 14.8935C7.28733 16.7464 7.84793 18.8109 8.82268 20.8341C5.90349 23.6263 -1.15712 32.292 0.600458 34.8675C4.5247 40.6274 11.0045 56.8388 11.0904 57.4633C11.1762 58.1343 11.0601 58.733 10.7368 59.3059C10.4136 59.8788 9.88834 60.4104 9.29743 60.9111C8.09541 61.9072 3.07521 67.2077 2.29743 68.849C-0.172269 74.0567 0.827731 76.6889 3.92874 78.3044C7.79743 79.9405 9.21662 78.6812 9.73682 77.556C9.69137 78.7173 10.3176 80.3431 14.0196 80.7766C18.3833 81.2824 19.4489 79.6153 19.5954 78.1908C20.1308 79.2386 21.5803 80.2347 25.3176 79.6515C29.9287 78.9289 29.8328 76.4825 29.7015 75.7599C29.8833 76.4102 30.7015 78.4283 33.7823 77.9328C37.6005 77.3186 38.1156 72.8799 37.9691 70.7587C39.2217 71.5638 40.8429 72.1367 42.9237 72.1367C43.7974 72.1832 44.6005 72.0593 45.353 71.8374C45.3631 73.7057 46.8176 78.0102 48.3075 78.7534C51.6964 80.4515 55.6207 76.7818 55.6207 76.7818C55.9994 77.587 57.2015 81.1689 59.2469 81.3392C61.3277 81.814 64.7217 79.347 64.7217 79.347C64.7217 79.347 92.8075 32.0753 92.8075 31.4146C92.8126 30.8417 80.0702 21.4638 75.9792 18.4703ZM62.1964 13.3968C61.6308 13.9439 61.1661 14.429 60.8631 14.7593C56.954 13.7993 36.0297 9.20585 20.7469 16.4677C20.4843 16.1064 20.1358 15.6419 19.7116 15.1258C38.954 0.385307 45.4388 2.00594 62.1964 13.3968ZM9.5247 15.1C9.63581 13.9955 9.99945 14.0419 10.858 13.4845C14.1813 11.3271 17.2419 19.9825 17.2924 20.0651L17.7974 20.8444L19.3782 20.1219C35.2772 12.0187 56.3025 14.8729 62.3429 17.6393C62.4893 17.7064 63.8025 18.2535 63.8025 18.2535L64.2217 17.7632C65.7419 15.9826 69.0297 10.7284 72.3681 10.9452C73.3984 11.0123 73.6914 11.1 74.3681 12.1323C75.1661 13.3452 75.1004 14.5735 74.7924 15.8896C73.8328 19.9619 68.0752 23.2805 68.0196 23.3115L66.757 23.967L67.0146 31.4817C63.3984 31.2959 56.4338 31.4198 53.0095 34.7488C53.0095 34.7488 51.5197 35.8326 50.7267 38.1036C50.7217 38.1242 50.7116 38.1397 50.7015 38.1604C50.5196 38.8313 49.2671 41.8197 49.2671 41.8197C49.2671 41.8197 51.4691 43.75 54.0298 43.2029C56.5904 42.6558 59.0853 39.141 58.8227 37.2262C58.651 35.9926 57.9792 35.0017 57.8378 34.4959C58.2671 34.3978 58.7015 34.3565 59.1308 34.3823L67.1358 34.8314L67.2217 37.283C64.2318 43.3629 58.4287 51.6312 58.3631 51.7189L58.1762 51.977C58.1762 51.977 58.3883 60.942 53.4186 63.373C51.5954 64.2659 49.8984 64.3278 48.4439 63.7291C45.7166 62.6091 44.2873 60.9936 44.2873 60.9936L43.3732 58.475C49.9489 54.4079 52.0803 50.7383 51.2318 49.7576C50.3732 48.7667 46.7823 50.5731 42.8075 50.8931C38.8328 51.2131 35.1813 47.4299 35.2217 50.4183C35.257 53.1073 41.5904 57.5924 42.8833 58.475L42.3681 60.9369C42.3479 60.9781 40.3479 64.1059 35.2217 64.0697C30.7267 64.0388 28.2924 55.5537 28.7469 53.7473L18.8984 40.0597L17.9439 34.6352C17.9439 34.6352 26.0196 35.2649 26.4136 35.2752C26.4691 35.8275 25.9186 38.6558 26.1409 39.6416C26.5651 41.5255 30.2116 43.1513 32.8277 43.2029C35.5904 43.2597 36.0954 41.8248 36.0954 41.8248C35.6459 39.8171 35.0196 38.7745 34.5146 38.2326C30.0803 30.8779 17.3681 31.6675 17.3681 31.6675L16.5196 26.5166C16.5045 26.5166 8.9641 20.5554 9.5247 15.1ZM51.5601 39.5952C51.8025 40.2197 52.3277 40.7565 53.1358 40.71C54.7368 40.6223 55.5348 39.3629 55.7015 37.9075C55.8075 36.9836 55.1005 36.3591 54.5752 36.0288C55.0803 35.6262 55.6156 35.2959 56.358 35.0275C56.6207 35.9049 57.8176 37.8713 56.2217 39.5126C54.2116 41.5771 53.5904 42.0984 51.3984 41.5668C50.7368 41.4068 51.0399 40.5139 51.5601 39.5952ZM28.8429 39.3165C29.6257 40.5448 30.6005 41.1848 32.0752 40.5397C32.7873 40.23 33.3176 39.6881 33.2924 39.0429C34.0196 39.6313 34.5904 40.3229 34.2015 40.901C33.3681 42.1448 31.252 41.4739 28.651 40.2816C26.8681 39.4662 27.4994 36.6997 27.353 35.6262L29.0601 36.8804C28.8025 37.5049 28.3833 38.5939 28.8429 39.3165ZM33.8025 75.6825C31.2116 76.3173 28.8681 71.8529 28.8378 71.8425C28.8075 71.8787 27.4237 75.5328 27.2722 75.729C26.7823 76.3535 25.2419 77.076 24.3277 77.1947C21.6813 77.587 19.4893 73.0141 19.4893 73.0141C19.4893 73.0141 17.6207 78.2786 15.0348 78.3147C10.7267 78.3663 10.4691 72.7716 10.4691 72.7716C10.4691 72.7716 6.29743 76.7973 4.09036 74.9702C1.21157 72.5858 12.5752 61.2414 13.0752 60.3382C13.3176 59.8891 13.5045 59.3833 13.6005 58.8569C12.2065 52.6944 10.3883 47.7293 8.62571 43.8687C8.73682 44.1216 8.98429 44.3745 9.32773 44.6532C10.1106 45.288 10.6964 45.6699 11.2318 45.6699C11.3075 45.6699 11.3782 45.6648 11.454 45.6493C11.8782 45.5616 12.2217 45.2261 12.5752 44.5603C12.8328 44.0751 12.757 43.6932 12.6459 43.4506C12.257 42.6042 10.9035 42.2997 10.7469 42.2687L10.6459 42.2481L10.555 42.2997C10.2116 42.4855 9.88329 42.6197 9.59541 42.7384C9.02975 42.9706 8.62571 43.1358 8.57015 43.5332C8.555 43.6209 8.57016 43.7087 8.59541 43.7964C5.38329 36.8133 2.34793 33.5152 2.34793 33.5152C2.75197 30.9759 8.27218 24.9115 10.0449 23.0121C11.1106 24.6947 12.3984 26.274 13.7217 27.5902L16.353 40.7668L25.8681 54.8724C25.4691 57.2363 26.3277 60.1265 28.2217 62.7072C30.0702 65.2362 32.4641 66.8465 34.7217 67.1458C35.0449 67.7497 35.5095 68.4826 36.1661 69.2103C36.2318 70.9393 35.8732 75.1715 33.8025 75.6825ZM42.8429 69.6129C40.3025 69.7729 38.5399 68.3536 37.4742 67.0684C40.3732 66.5523 42.1914 64.8336 43.2116 63.4968C43.7267 64.3536 46.3176 65.9897 49.2368 66.5574C48.3883 67.6207 46.459 69.3806 42.8429 69.6129ZM63.55 74.8928C63.55 74.8928 61.6661 78.3508 60.2318 78.0463C58.4085 77.6541 56.4186 73.4632 56.4186 73.4632C56.4186 73.4632 51.7419 77.587 49.5297 76.0438C48.3025 75.1251 47.1611 71.8374 46.9388 71.1819C49.1661 69.9639 50.6813 67.9045 51.3984 66.7587C52.353 66.7381 53.2974 66.5729 54.1762 66.1807C60.3732 63.3988 60.3479 59.4659 60.4843 54.6815C60.5045 54.0621 60.5196 53.4273 60.55 52.777C61.1863 51.9047 63.2621 49.0247 65.4388 45.6854C65.5398 45.7112 65.6459 45.7319 65.7469 45.7577C65.9742 45.799 66.2065 45.8196 66.4338 45.8454C66.6611 45.8661 66.8883 45.8506 67.1156 45.8557C68.0146 45.8145 68.8934 45.6235 69.6762 45.2777C71.257 44.6016 72.5449 43.5332 73.6358 42.3564C73.9136 42.0674 74.151 41.7371 74.4035 41.4326C74.6459 41.1177 74.9237 40.8287 75.1308 40.4881L75.7924 39.5023L76.1207 39.012L76.4136 38.4958C76.7873 37.7991 77.2065 37.1384 77.5348 36.4262L78.5348 34.3049L77.2823 36.2765C76.8732 36.9371 76.3782 37.5358 75.9287 38.1604L75.5853 38.6249L75.2065 39.0584L74.454 39.9255C74.2166 40.2248 73.9186 40.4623 73.656 40.7306C73.3782 40.9836 73.1257 41.2674 72.8328 41.4997C71.6964 42.4597 70.4237 43.2338 69.1156 43.5951C68.4641 43.7913 67.7974 43.8326 67.1712 43.7809C67.0146 43.7551 66.8631 43.7448 66.7116 43.7138C67.9388 41.7526 69.1207 39.7449 70.0095 37.9539L70.1308 37.7062L69.5702 24.8341C70.5904 24.1889 72.8025 22.6612 74.5398 20.5812C77.8025 23.0379 87.651 30.4959 88.3681 31.6882C88.3782 31.6675 65.8429 71.0064 63.55 74.8928Z" fill="white"/>
<path d="M39.9541 30.2686C39.7571 30.4389 39.7621 30.6196 39.7824 30.7177C39.8632 31.1099 40.4036 31.2803 41.6207 31.6261C42.4187 31.8532 43.4086 32.1371 43.7319 32.4468C43.8834 32.5913 44.0551 32.6636 44.2319 32.6636C44.3834 32.6636 44.5399 32.6068 44.6864 32.4984C45.4086 31.9616 45.9389 30.0105 45.4591 28.9731C44.8682 27.6981 43.3632 27.1768 43.2975 27.1562L43.2167 27.1304L43.1308 27.151C42.8783 27.2181 42.4541 27.6414 41.2217 28.9627C40.7217 29.4995 40.2066 30.057 39.9541 30.2686Z" fill="white"/>
<path d="M57.1662 24.2508C57.9641 24.4779 58.954 24.7617 59.2773 25.0713C59.4288 25.2158 59.6005 25.2881 59.7773 25.2881C59.9288 25.2881 60.0853 25.2313 60.2318 25.1229C60.954 24.5862 61.4843 22.6355 61.0045 21.5982C60.4136 20.3235 58.9086 19.8023 58.8429 19.7817L58.7621 19.7559L58.6762 19.7765C58.4237 19.8436 57.9995 20.2668 56.7672 21.5879C56.2672 22.1246 55.752 22.6768 55.4995 22.8935C55.3025 23.0639 55.3076 23.2445 55.3278 23.3425C55.4136 23.7347 55.954 23.905 57.1662 24.2508Z" fill="white"/>
<path d="M36.8529 22.8828C37.469 23.5486 37.6408 23.6363 39.2266 23.6363C39.4741 23.6363 39.7064 23.6466 39.9185 23.6518C40.1003 23.657 40.2721 23.6621 40.4286 23.6621C40.9286 23.6621 41.2973 23.6002 41.5195 23.2957C41.762 22.9654 41.7418 22.4545 41.4438 21.5358C40.6963 19.2135 38.469 19.6212 38.4438 19.6263L38.3731 19.647C37.1711 20.225 36.4387 20.9217 36.3175 21.6184C36.2468 22.0055 36.368 22.3719 36.661 22.6816L36.8529 22.8828Z" fill="white"/>
<path d="M73.939 44.9678L73.8936 44.9884C73.0703 45.4426 72.5703 46 72.4845 46.5523C72.439 46.8568 72.5198 47.151 72.7218 47.3936L72.8481 47.5484C73.2723 48.0749 73.3885 48.1419 74.4744 48.1419C74.6461 48.1419 74.8027 48.1471 74.9491 48.1523C75.0754 48.1574 75.1915 48.1626 75.2976 48.1626C75.636 48.1626 75.8936 48.1161 76.0451 47.8736C76.2117 47.6103 76.1966 47.2078 75.9946 46.48C75.4744 44.6426 73.9542 44.9626 73.939 44.9678Z" fill="white"/>
<path d="M48.9643 25.4012C49.1158 25.7521 49.2724 26.1133 49.8027 26.1133C49.9037 26.1133 50.0198 26.0978 50.1512 26.072C51.0501 25.8759 51.7572 25.654 51.9845 24.7871C52.1815 24.044 52.1815 23.5073 51.9794 22.8623C51.7572 22.1347 50.0552 22.145 49.333 22.1863L49.237 22.1914L49.1663 22.2534C48.4138 22.8674 47.7522 23.5589 48.5703 24.6942C48.7724 24.9574 48.8734 25.1947 48.9643 25.4012Z" fill="white"/>
<path d="M42.6865 38.0983L42.5905 38.1035L42.5198 38.1654C41.7673 38.7796 41.1057 39.4713 41.9239 40.6068C42.1208 40.8752 42.2218 41.1127 42.3128 41.3243C42.4643 41.6753 42.6208 42.0366 43.1511 42.0366C43.2522 42.0366 43.3683 42.0211 43.4996 41.9953C44.3986 41.7992 45.1057 41.5772 45.333 40.7101C45.5299 39.9668 45.5299 39.43 45.3279 38.7848C45.1057 38.0467 43.4037 38.0622 42.6865 38.0983Z" fill="white"/>
<path d="M10.7822 31.3781C10.56 30.6503 8.85793 30.6606 8.13571 30.7019L8.03975 30.7071L7.96904 30.769C7.21652 31.3832 6.5549 32.0749 7.37308 33.2104C7.57005 33.4788 7.67106 33.7162 7.76197 33.9279C7.91349 34.2788 8.07005 34.6401 8.60036 34.6401C8.70137 34.6401 8.81753 34.6247 8.94884 34.5989C9.84783 34.4027 10.5549 34.1808 10.7822 33.3136C10.9791 32.5601 10.9791 32.0233 10.7822 31.3781Z" fill="white"/>
<path d="M16.4034 58.6505L16.1307 58.4854L15.9943 58.7795C15.8428 59.0995 14.5448 61.9589 15.2469 63.2853C15.4438 63.6569 15.7772 63.884 16.2165 63.9459C16.6256 64.0027 17.0095 64.0337 17.363 64.0337C18.7974 64.0337 19.7873 63.564 20.3075 62.6298C20.9236 61.515 17.7822 59.4763 16.4034 58.6505Z" fill="white"/>
<path d="M67.5144 50.4596L67.267 50.3306L67.1457 50.5576C67.0094 50.8053 65.8528 53.0295 66.4791 54.0617C66.6558 54.3507 66.9538 54.5261 67.3478 54.5726C67.7164 54.619 68.0548 54.6396 68.373 54.6396C69.6558 54.6396 70.5397 54.2732 71.0043 53.5456C71.5599 52.6889 68.7468 51.0995 67.5144 50.4596Z" fill="white"/>
<path d="M44.469 21.6907C44.8377 21.7372 45.1761 21.7578 45.4943 21.7578C46.7771 21.7578 47.6609 21.3914 48.1256 20.6637C48.6811 19.7967 45.868 18.2123 44.6306 17.5724L44.3832 17.4434L44.262 17.6704C44.1256 17.9182 42.969 20.1425 43.5953 21.1746C43.7771 21.4636 44.0801 21.6391 44.469 21.6907Z" fill="white"/>
<path d="M25.0598 28.7766C25.4285 28.8231 25.7669 28.8438 26.0851 28.8438C27.3679 28.8438 28.2518 28.4773 28.7164 27.7495C29.272 26.8824 26.4588 25.2979 25.2215 24.6578L24.974 24.5288L24.8528 24.7559C24.7164 25.0037 23.5598 27.2282 24.1861 28.2605C24.3679 28.5547 24.6659 28.7302 25.0598 28.7766Z" fill="white"/>
<path d="M16.9691 55.2852C17.257 55.538 17.4237 55.7806 17.5449 55.956C17.6913 56.1625 17.8226 56.3585 18.0701 56.374C18.0802 56.374 18.0853 56.374 18.0954 56.374C18.363 56.374 18.5853 56.147 19.0095 55.6464C19.5752 54.9807 19.7418 54.1809 19.4439 53.5668C19.161 52.9837 18.5045 52.6638 17.6964 52.7154C17.4085 52.736 16.7772 53.2882 16.5752 53.9074C16.4035 54.4234 16.5449 54.9137 16.9691 55.2852Z" fill="white"/>
<path d="M15.4744 49.0811C15.4845 49.0811 15.4896 49.0811 15.4997 49.0811C15.7673 49.0811 15.9896 48.854 16.4138 48.3534C16.9795 47.6876 17.1461 46.8876 16.8482 46.2735C16.5653 45.6903 15.9088 45.3703 15.1007 45.4219C14.8128 45.4374 14.1815 45.9948 13.9795 46.6141C13.8077 47.1302 13.9492 47.6205 14.3734 47.9921C14.6613 48.245 14.828 48.4875 14.9492 48.663C15.0956 48.8746 15.232 49.0707 15.4744 49.0811Z" fill="white"/>
<path d="M32.4744 28.2971C32.4744 28.2971 32.0552 29.1281 32.4744 29.892C32.8936 30.6611 33.8431 31.3063 34.0502 30.5011C34.2623 29.6959 34.5754 27.8687 32.4744 28.2971Z" fill="white"/>
<path d="M60.4236 26.5837C60.4236 26.5837 60.0044 27.4147 60.4236 28.1786C60.8428 28.9477 61.7923 29.5929 61.9994 28.7877C62.2064 27.9773 62.5246 26.1501 60.4236 26.5837Z" fill="white"/>
<path d="M33.1053 20.9939C33.3174 20.1888 33.6356 18.3619 31.5094 18.7902C31.5094 18.7902 31.0851 19.6211 31.5094 20.3849C31.9336 21.1539 32.8881 21.8042 33.1053 20.9939Z" fill="white"/>
<path d="M28.4591 32.0081C28.8833 32.7769 29.8429 33.4218 30.055 32.6169C30.2671 31.812 30.5853 29.9855 28.4591 30.4138C28.4591 30.4086 28.0348 31.2393 28.4591 32.0081Z" fill="white"/>
<path d="M35.7217 36.462C36.4439 36.782 37.5197 37.2156 37.7318 36.462C37.9439 35.7083 37.5197 35.3005 37.2267 35.2799C35.6661 35.1715 34.9995 36.1419 35.7217 36.462Z" fill="white"/>
<path d="M62.9841 64.5699C61.4235 64.4615 60.7568 65.432 61.479 65.752C62.2012 66.0721 63.277 66.5057 63.4891 65.752C63.7063 64.9984 63.282 64.5906 62.9841 64.5699Z" fill="white"/>
<path d="M13.9592 51.9147C12.3986 51.8063 11.7319 52.7764 12.4541 53.0964C13.1763 53.4163 14.2521 53.8498 14.4642 53.0964C14.6763 52.343 14.2572 51.9301 13.9592 51.9147Z" fill="white"/>
<path d="M8.07521 27.8276C8.79744 28.1477 9.87319 28.5814 10.0853 27.8276C10.2974 27.0737 9.87319 26.6658 9.58026 26.6452C8.01966 26.5367 7.35299 27.5023 8.07521 27.8276Z" fill="white"/>
<path d="M50.0901 32.6581C51.3932 33.5614 51.1962 34.0105 52.1356 32.6581C53.075 31.3058 52.4134 29.7264 50.171 29.8193C50.171 29.8193 48.7871 31.7601 50.0901 32.6581Z" fill="white"/>
<path d="M65.7974 61.8143C65.3024 63.5847 65.6913 64.8235 67.2671 63.5331C68.8428 62.2427 69.0499 61.4942 68.6863 60.6322C68.3176 59.7702 66.4287 59.5586 65.7974 61.8143Z" fill="white"/>
<path d="M21.5397 56.374C21.5397 56.374 19.3326 58.8102 20.3831 59.347C21.4336 59.8838 22.171 59.5638 22.5902 58.4902C23.0144 57.4115 21.5397 56.374 21.5397 56.374Z" fill="white"/>
<path d="M13.237 38.3976C13.7622 37.2158 12.1612 36.0752 12.1612 36.0752C9.92892 36.7616 10.4996 38.826 10.9289 39.0014C11.3582 39.1769 12.7117 39.5795 13.237 38.3976Z" fill="white"/>
<path d="M4.93359 35.9978C5.77703 37.5767 6.50935 37.8553 6.9942 36.8801C7.4841 35.8998 4.93359 35.9978 4.93359 35.9978Z" fill="white"/>
<path d="M47.5047 9.4999C48.3482 7.673 46.5603 7.96201 46.5603 7.96201C43.6158 8.25101 43.1966 10.4598 44.1411 11.4352C45.0906 12.4054 46.6663 11.3268 47.5047 9.4999Z" fill="white"/>
<path d="M36.3023 9.87154C37.4134 10.6819 37.8326 11.2083 38.4639 9.87154C39.0952 8.53474 37.0699 6.70762 35.7164 8.74636C35.2972 9.38121 35.1912 9.0612 36.3023 9.87154Z" fill="white"/>
<path d="M31.2824 12.3641C31.9845 12.2196 32.3329 11.9254 32.8228 11.5332C33.3127 11.1461 32.2875 10.6868 32.2875 10.6868C32.2875 10.6868 31.4238 10.5733 31.0046 11.2855C30.5855 11.9977 30.5804 12.5086 31.2824 12.3641Z" fill="white"/>
<path d="M53.4992 12.39C54.3427 12.9164 55.3225 12.5087 55.3225 11.5384C55.3275 10.5682 54.2669 10.692 54.2669 10.692C53.378 10.3824 52.6558 11.8636 53.4992 12.39Z" fill="white"/>
</svg>
