<svg width="207" height="52" viewBox="0 0 207 52" fill="none" xmlns="http://www.w3.org/2000/svg">
<path d="M81.47 44.2589C81.01 44.2589 80.5431 44.252 80.0693 44.2382C79.5969 44.2249 79.127 44.1634 78.6669 44.0544C78.5464 44.0543 78.4277 44.0246 78.3213 43.9678C78.2148 43.9109 78.1238 43.8288 78.0563 43.7285C77.8964 43.5167 77.8109 43.2577 77.813 42.9919C77.8132 42.3308 77.8465 41.6701 77.9131 41.0124C77.9809 40.3675 78.0155 39.7196 78.0166 39.0711C78.1511 36.4318 78.1914 33.8382 78.1373 31.2902C78.0821 28.7456 78.0977 22.1278 78.1787 19.5139C78.2857 18.2335 78.3397 16.9538 78.3409 15.6746C78.3413 14.3759 78.4092 13.0782 78.5444 11.7867C78.5979 11.733 78.6514 11.6723 78.7066 11.6047C78.7949 11.4992 78.9032 11.4123 79.0252 11.3492C79.1472 11.2862 79.2805 11.2481 79.4173 11.2372C79.5893 11.2196 79.763 11.2403 79.9262 11.2979C82.3412 11.3534 84.7395 11.3805 87.1211 11.3794C89.5028 11.3782 91.9149 11.4487 94.3575 11.5908C94.5487 11.6003 94.7324 11.6687 94.8836 11.7867C95.149 12.0236 95.3337 12.3383 95.4115 12.6863C95.4115 13.6396 95.3706 14.5791 95.289 15.5047C95.2073 16.4303 95.1671 17.3698 95.1682 18.3231C95.1148 21.0444 95.0803 27.7784 95.0665 30.4478C95.0527 33.1171 94.9923 35.7968 94.8836 38.4922C94.8836 39.4166 94.8969 40.3358 94.9233 41.2499C94.9507 42.1663 94.842 43.0818 94.6007 43.966C94.5225 44.1263 94.3932 44.2557 94.2333 44.3335C94.1557 44.3866 94.0744 44.4341 93.9901 44.4756C93.9013 44.5181 93.8038 44.5389 93.7054 44.5363C93.1698 44.429 92.625 44.3744 92.0788 44.3734C91.5349 44.3735 90.9917 44.333 90.4538 44.252C90.2887 44.24 90.1317 44.1757 90.0053 44.0683C89.86 43.9633 89.7359 43.8316 89.6396 43.68C89.519 43.5285 89.4479 43.3433 89.4361 43.1496C89.5446 42.3505 89.6125 41.5463 89.6396 40.7403C89.6672 39.9499 89.7247 39.1462 89.8121 38.3292H83.0139C82.9604 39.1959 82.8983 40.0522 82.8328 40.8824C82.7672 41.7127 82.7293 42.5637 82.7293 43.4356C82.7314 43.5527 82.7068 43.6686 82.6575 43.7747C82.6082 43.8807 82.5354 43.974 82.4447 44.0475C82.3884 44.1104 82.3198 44.161 82.2433 44.1962C82.1667 44.2314 82.0838 44.2504 81.9996 44.252L81.47 44.2589ZM83.54 16.2466C83.459 18.3976 83.3917 24.5926 83.3365 26.7592C83.2813 28.9259 83.2278 31.0804 83.1743 33.2315C84.3145 33.1789 85.4568 33.1951 86.595 33.28C87.7335 33.3632 88.8714 33.4042 90.0088 33.4031C90.0617 31.241 90.1312 29.1142 90.2175 27.0227C90.2986 24.9271 90.3141 18.7651 90.2589 16.614C89.1204 16.5054 88.0026 16.4511 86.9055 16.4511C85.7818 16.4494 84.6592 16.3811 83.5435 16.2466H83.54Z" fill="black"/>
<path d="M102.515 44.259C101.941 44.3125 101.364 44.3125 100.79 44.259C100.234 44.2046 99.6594 44.1775 99.0648 44.1775C98.9837 44.1238 98.8923 44.0683 98.7992 44.0146C98.7027 43.9582 98.614 43.8894 98.5352 43.81C98.4405 43.7134 98.3665 43.5984 98.3175 43.472C98.2686 43.3457 98.2458 43.2106 98.2506 43.0751C98.2506 41.9299 98.2984 40.7744 98.3938 39.6084C98.4893 38.4425 98.5634 37.2869 98.6163 36.1418C98.6715 33.6654 98.6652 31.2012 98.5974 28.7491C98.5284 26.2982 98.5611 19.7687 98.6991 17.2363C98.807 16.3217 98.8266 15.3987 98.7578 14.4803C98.6915 13.5368 98.7955 12.589 99.0648 11.6827C99.1313 11.5873 99.2136 11.504 99.3081 11.4366C99.4004 11.361 99.515 11.3183 99.6341 11.3152C100.257 11.3152 100.885 11.3014 101.532 11.2736C102.17 11.2481 102.808 11.3307 103.419 11.518C103.524 11.5702 103.62 11.6393 103.703 11.7226C103.789 11.8072 103.88 11.8865 103.976 11.96C104.073 12.1214 104.132 12.3028 104.148 12.4904C104.014 13.9603 103.931 15.4059 103.903 16.8238C103.876 18.2416 103.836 23.7224 103.783 25.1923C103.729 25.792 103.688 26.4056 103.66 27.0296C103.633 27.6423 103.646 28.2561 103.7 28.867C103.701 29.4613 103.66 30.0549 103.579 30.6436C103.498 31.2323 103.484 31.8284 103.538 32.4203C103.592 33.0792 103.606 33.7409 103.579 34.4015C103.552 35.0411 103.538 35.7171 103.538 36.4243C103.485 36.8865 103.452 37.3285 103.438 37.7503C103.422 38.175 103.389 38.617 103.336 39.078C105.206 39.1595 117.095 39.2514 118.911 39.345C120.727 39.4386 122.568 39.5547 124.431 39.6916C124.595 39.7026 124.752 39.7664 124.878 39.8736C125.024 39.9782 125.148 40.1107 125.243 40.2636C125.433 40.8507 125.468 41.4771 125.345 42.0819C125.224 42.6798 125.163 43.2883 125.162 43.8984C125.159 43.9713 125.139 44.0424 125.103 44.1061C125.068 44.1699 125.019 44.2245 124.959 44.2659C124.846 44.3656 124.703 44.4232 124.553 44.4288C122.521 44.3757 120.516 44.3554 118.537 44.3682C116.556 44.3734 104.519 44.3404 102.515 44.259Z" fill="black"/>
<path d="M112.68 36.2475C112.047 36.1657 111.408 36.1252 110.769 36.1262C110.129 36.1276 109.49 36.0725 108.86 35.9615C108.748 35.9587 108.639 35.9248 108.546 35.8636C108.452 35.8024 108.378 35.7163 108.33 35.6148C108.208 35.4256 108.138 35.2074 108.126 34.9822C108.126 34.0577 108.161 33.1593 108.23 32.2868C108.296 31.4202 108.356 30.5171 108.411 29.5898C108.492 26.9759 108.52 28.4198 108.492 25.8475C108.465 23.2752 108.492 20.6804 108.575 18.0666C108.629 17.0046 108.656 15.9496 108.656 14.9015C108.655 13.8581 108.723 12.8158 108.86 11.7815C108.937 11.6212 109.066 11.4918 109.225 11.414C109.805 11.2805 110.399 11.2257 110.993 11.2511C111.574 11.2788 112.164 11.2927 112.762 11.2927C112.873 11.2938 112.983 11.3143 113.088 11.3534C113.195 11.395 113.301 11.4418 113.412 11.4955C113.465 11.4955 113.546 11.551 113.655 11.6688C113.756 11.7973 113.865 11.92 113.979 12.0363C114.037 12.0952 114.083 12.1654 114.112 12.2427C114.142 12.3199 114.155 12.4025 114.152 12.4852C113.853 16.2986 113.67 20.0697 113.603 23.7987C113.536 27.5306 113.407 27.2342 113.217 30.992C114.354 31.0735 115.494 31.1411 116.631 31.1966L120.044 31.3595C120.126 30.2155 120.16 29.0721 120.146 27.9292C120.132 26.7852 120.574 18.7426 120.655 17.141C120.736 15.5394 120.803 13.9291 120.859 12.3223C120.855 12.2384 120.868 12.1545 120.898 12.0762C120.934 12.0058 120.975 11.938 121.021 11.8734L121.224 11.6688C121.289 11.6227 121.357 11.5816 121.428 11.5458C121.505 11.5144 121.588 11.5002 121.671 11.5042C122.267 11.5042 122.856 11.4845 123.439 11.4452C124.011 11.4023 124.585 11.4784 125.126 11.6688C125.324 11.7727 125.487 11.9324 125.596 12.1283C125.704 12.3242 125.753 12.5477 125.737 12.7712C125.682 13.78 125.62 14.801 125.552 15.834C125.485 16.8671 125.427 17.8886 125.38 18.8986C125.323 22.4103 125.297 21.8712 125.297 25.357C125.297 28.8427 125.202 32.3544 125.012 35.8939C124.957 35.9489 124.909 36.0106 124.869 36.0776C124.827 36.1508 124.767 36.2131 124.697 36.2596C124.588 36.3168 124.493 36.3636 124.412 36.4035C124.323 36.446 124.226 36.4668 124.128 36.4642C122.202 36.3301 120.299 36.2758 118.416 36.3012C116.534 36.3266 114.622 36.3087 112.68 36.2475Z" fill="black"/>
<path d="M135 44.5224C134.387 44.4412 133.769 44.4071 133.151 44.4201C132.529 44.4331 131.907 44.3714 131.3 44.2364C131.114 44.2084 130.941 44.1223 130.807 43.9905C130.672 43.8586 130.582 43.6875 130.55 43.5014C130.456 43.1277 130.434 42.7392 130.487 42.3574C130.676 41.1765 130.757 39.9808 130.731 38.785C130.704 37.5923 130.745 36.399 130.853 35.2109C130.934 33.1956 130.947 31.1803 130.895 29.165C130.841 27.1509 130.853 21.0981 130.934 19.084C130.934 17.94 130.969 16.796 131.038 15.652C131.107 14.508 131.167 13.3646 131.219 12.2217C131.217 12.1512 131.231 12.0812 131.26 12.0172C131.286 11.9617 131.327 11.8802 131.383 11.7728C131.422 11.7363 131.456 11.6949 131.484 11.6497C131.497 11.6237 131.529 11.6081 131.585 11.6081C132.418 11.4737 133.261 11.4174 134.105 11.44C134.919 11.4677 135.732 11.4816 136.544 11.4816C137.789 11.537 139.036 11.5711 140.284 11.5838C141.531 11.5966 142.764 11.6301 143.982 11.6844C144.079 11.6835 144.175 11.6976 144.267 11.726C144.365 11.7595 144.46 11.8006 144.551 11.849C144.739 11.9839 144.892 12.1615 144.998 12.3673C145.104 12.5731 145.16 12.8012 145.162 13.0329C145.159 13.4634 145.132 13.8934 145.081 14.3208C145.027 14.7474 144.999 15.1769 144.998 15.6069C144.998 15.7436 144.985 15.88 144.958 16.0142C144.929 16.1537 144.888 16.2905 144.836 16.4233C144.781 16.5048 144.72 16.5966 144.653 16.6694C144.586 16.7422 144.525 16.7908 144.47 16.7908C143.09 16.7908 141.71 16.7567 140.33 16.6885C138.95 16.6203 137.57 16.5591 136.19 16.5048C136.054 19.6629 135.966 26.832 135.926 29.9364C135.887 33.0408 135.769 36.1764 135.581 39.3293C137.396 39.3848 146.225 39.4593 148.001 39.5546C149.778 39.65 151.572 39.728 153.387 39.78C153.62 39.7761 153.849 39.8478 154.039 39.9845C154.218 40.0436 154.374 40.1575 154.486 40.3104C154.62 40.6347 154.641 40.995 154.546 41.333C154.452 41.6643 154.431 42.0122 154.486 42.3522C154.485 42.4093 154.499 42.4654 154.527 42.5152C154.552 42.5664 154.566 42.6227 154.567 42.6798C154.486 42.9093 154.472 43.157 154.527 43.394C154.553 43.5088 154.556 43.6279 154.535 43.7438C154.514 43.8597 154.47 43.9701 154.405 44.0682C154.349 44.1497 154.289 44.2312 154.22 44.3144C154.151 44.3976 154.092 44.4634 154.039 44.5172C153.668 44.6527 153.272 44.7013 152.88 44.6593C152.481 44.6194 152.081 44.5998 151.681 44.6004C150.082 44.5172 148.483 44.4964 146.884 44.538C145.269 44.583 136.62 44.5778 135 44.5224Z" fill="black"/>
<path d="M149.714 36.7709C149.44 36.7458 149.172 36.6725 148.923 36.5542C148.708 36.4542 148.52 36.3045 148.374 36.1174C148.428 35.1653 148.496 34.2131 148.578 33.2609L148.821 30.4044C148.739 28.6953 148.719 26.9926 148.76 25.2962C148.802 23.5999 148.917 21.8978 149.105 20.1898C149.124 20.0697 149.181 19.9588 149.268 19.8744C149.366 19.8157 149.468 19.7631 149.573 19.7166C149.683 19.6736 149.8 19.653 149.918 19.656C150.311 19.6724 150.705 19.6683 151.098 19.6438C151.531 19.6196 151.951 19.6155 152.357 19.6317C152.729 19.6405 153.098 19.6988 153.454 19.805C153.756 19.8922 154.016 20.0854 154.187 20.3493C154.132 21.06 154.057 21.7701 153.961 22.4796C153.868 23.1858 153.821 23.8974 153.82 24.6098C153.765 26.5639 153.745 28.5006 153.759 30.42C153.772 32.3611 153.67 34.3012 153.454 36.2301C153.4 36.3425 153.339 36.4518 153.273 36.5577C153.232 36.6131 153.18 36.6598 153.121 36.6949C153.062 36.73 152.996 36.7529 152.928 36.7622C152.386 36.7958 151.851 36.8038 151.322 36.7865C150.793 36.7692 150.257 36.764 149.714 36.7709Z" fill="black"/>
<path d="M149.557 17.1895C149.37 17.1667 149.186 17.1249 149.007 17.0647C149.062 16.796 148.81 12.3188 149.221 12.3847C149.221 12.3847 151.291 12.3968 151.731 12.3847C152.171 12.3725 152.585 12.3847 152.992 12.3847C153.399 12.3847 153.765 12.4072 154.089 12.4367C154.413 12.4661 154.455 13.598 154.455 13.7991C154.399 14.3461 154.379 14.8961 154.394 15.4457C154.404 16.0097 154.3 16.5697 154.089 17.0924C154.03 17.1267 153.969 17.158 153.906 17.186C153.837 17.2224 149.785 17.2207 149.557 17.1895Z" fill="black"/>
<path d="M162.873 44.434C162.41 44.434 161.959 44.434 161.51 44.4149C161.051 44.3998 160.595 44.3365 160.149 44.226C160.003 44.2339 159.858 44.1962 159.735 44.1179C159.611 44.0397 159.515 43.9248 159.459 43.7892C159.323 43.4963 159.253 43.1765 159.255 42.8532C159.391 40.1342 159.52 37.4215 159.642 34.7152C159.763 32.0095 159.756 26.2115 159.621 23.4901C159.621 22.8534 159.608 22.1948 159.581 21.5141C159.552 20.8386 159.593 20.1618 159.704 19.4948C159.781 18.2894 159.792 17.0805 159.735 15.8739C159.683 14.653 159.82 13.4314 160.142 12.2529C160.195 12.1706 160.265 12.0998 160.346 12.0449L160.587 11.8716C160.724 11.871 160.86 11.8565 160.994 11.8283C161.131 11.8012 161.269 11.7873 161.408 11.7867C161.812 11.8421 162.221 11.856 162.628 11.8283C163.048 11.8024 163.47 11.817 163.887 11.8716C164.018 11.9258 164.155 11.967 164.294 11.9947C164.438 12.0282 164.576 12.0868 164.7 12.168C164.971 12.3909 165.204 12.6573 165.39 12.9567C165.579 13.2658 165.826 13.5353 166.118 13.7505C166.223 13.8327 166.307 13.9399 166.361 14.0625C166.42 14.1953 166.503 14.3159 166.606 14.4179C166.99 14.7586 167.355 15.1197 167.701 15.4995C168.027 15.86 168.377 16.2344 168.758 16.6227C169.273 17.1773 169.76 17.7187 170.221 18.2468C170.682 18.7749 171.171 19.288 171.686 19.786C171.739 18.5657 171.786 17.3726 171.827 16.2067C171.869 15.0407 171.93 13.8476 172.01 12.6273C172.176 12.394 172.411 12.2193 172.681 12.1281C172.95 12.0426 173.231 12.0074 173.513 12.0241C173.813 12.038 174.116 12.064 174.429 12.1073C174.719 12.1465 175.011 12.1674 175.303 12.1697C175.445 12.1133 175.598 12.0919 175.75 12.1073C175.912 12.1212 176.06 13.1993 176.195 13.2808C176.295 13.3285 176.387 13.3917 176.468 13.468L176.65 13.6552C176.759 13.8544 176.848 14.064 176.916 14.2809C176.982 14.4971 176.988 14.727 176.935 14.9465C176.722 16.0791 176.607 17.2279 176.59 18.3803C176.575 19.5058 176.568 20.6232 176.569 21.7325C176.397 25.1992 176.397 30.6991 176.569 34.112C176.432 35.7772 176.372 37.4493 176.386 39.1283C176.4 40.8036 176.312 42.4783 176.123 44.1428C176.065 44.2027 176.011 44.2658 175.96 44.3317C175.903 44.4039 175.834 44.4665 175.757 44.5172C175.646 44.5761 175.553 44.6229 175.472 44.6628C175.398 44.704 175.314 44.726 175.229 44.7269C174.674 44.6153 174.108 44.5658 173.542 44.5796C172.979 44.5969 172.415 44.576 171.855 44.5172C171.732 44.5212 171.611 44.4854 171.51 44.4149C171.401 44.3335 171.299 44.2424 171.206 44.1428C171.123 44.0596 171.034 43.9695 170.961 43.8741C170.891 43.8009 170.847 43.7054 170.839 43.6037C171.029 41.2996 171.151 39.0168 171.206 36.7553C171.26 34.4933 171.353 29.1287 171.491 26.8632C170.352 25.6984 169.241 24.5325 168.156 23.3653C167.072 22.1982 165.975 21.0051 164.865 19.786C164.784 20.7139 164.764 21.6461 164.805 22.5767C164.844 23.5055 164.837 24.4358 164.784 25.3639C164.648 27.5288 164.56 32.7375 164.52 34.8192C164.48 36.9009 164.417 39.0225 164.336 41.1875C164.282 41.5775 164.248 41.9311 164.236 42.25C164.223 42.5689 164.187 42.9243 164.132 43.3125C164.117 43.5423 164.062 43.7676 163.97 43.9781C163.916 44.0596 163.87 44.1307 163.828 44.1861C163.786 44.2478 163.738 44.3058 163.685 44.3595C163.565 44.4381 163.423 44.4746 163.28 44.4635C163.145 44.4468 163.009 44.4369 162.873 44.434Z" fill="black"/>
<path d="M183.64 44.4322C182.524 44.5156 181.403 44.4432 180.307 44.2173C180.156 44.1952 180.013 44.134 179.892 44.0399C179.771 43.9457 179.676 43.8217 179.617 43.68C179.488 43.4031 179.418 43.1018 179.414 42.796C179.495 40.9598 179.563 39.1161 179.617 37.2649C179.671 35.4137 179.725 33.5706 179.779 31.7356C179.862 29.7561 179.876 25.6464 179.821 23.6686C179.765 21.6909 179.809 19.708 179.943 17.7268C179.943 17.2709 179.957 16.8098 179.983 16.3505C180.009 15.8912 180.024 15.4474 180.024 15.0158C180.079 14.7969 180.079 14.5675 180.024 14.3485C179.971 14.1293 179.971 13.9004 180.024 13.6812C180.078 13.5448 180.105 13.3996 180.105 13.253V12.8266C180.103 12.7227 180.124 12.6196 180.167 12.525C180.209 12.4401 180.255 12.3378 180.309 12.2252C180.39 12.1385 180.481 12.0518 180.575 11.9652C180.643 11.8915 180.737 11.8458 180.837 11.8369C182.843 11.7803 184.856 11.7872 186.874 11.8577C188.892 11.9282 190.905 11.9929 192.912 12.0518C193.089 12.0478 193.263 12.1095 193.398 12.2252C193.512 12.3187 193.621 12.4188 193.724 12.525C193.908 12.8284 194.032 13.1644 194.09 13.5148C194.144 13.8639 194.157 14.2181 194.131 14.5704C194.102 14.9292 194.062 15.2949 194.009 15.6676C193.955 16.0239 193.928 16.3837 193.928 16.744C193.931 16.7921 193.924 16.8404 193.906 16.8852C193.888 16.93 193.86 16.97 193.824 17.0022C193.756 17.0649 193.698 17.1374 193.652 17.2172C193.628 17.2756 193.589 17.3265 193.539 17.3644C193.489 17.4023 193.429 17.4257 193.367 17.4321C193.237 17.432 193.107 17.4466 192.981 17.4754C192.864 17.5035 192.742 17.4881 192.636 17.4321C191.418 17.3749 190.183 17.3385 188.937 17.3246C187.692 17.3108 186.445 17.2449 185.199 17.1305C185.065 17.8321 185.024 18.5484 185.077 19.2608C185.128 19.9564 185.087 20.6558 184.956 21.3408C185.761 21.4842 186.582 21.5058 187.393 21.4049C188.203 21.3048 189.019 21.2833 189.833 21.3408C189.945 21.3368 190.057 21.3625 190.157 21.4154C190.257 21.4683 190.341 21.5466 190.402 21.6424C190.583 21.9389 190.707 22.267 190.768 22.6096C190.822 22.9435 190.842 23.2821 190.828 23.6201C190.814 23.9668 190.793 24.3134 190.768 24.6601C190.74 25.0062 190.74 25.354 190.768 25.7001C190.765 25.7963 190.744 25.8912 190.705 25.9792C190.668 26.0767 190.62 26.1702 190.564 26.2582C190.428 26.3744 190.305 26.4818 190.198 26.5824C190.074 26.6882 189.914 26.7422 189.751 26.7332C188.939 26.7904 188.124 26.7904 187.312 26.7332C186.499 26.6754 185.673 26.6465 184.834 26.6465C184.778 28.34 184.723 32.1672 184.671 33.8745C184.62 35.5818 184.575 37.2666 184.575 38.967C186.445 39.1092 188.321 39.2022 190.205 39.2461C192.089 39.29 193.965 39.4119 195.834 39.6118C196.133 39.8063 196.351 40.1051 196.444 40.4508C196.527 40.7962 196.56 41.1515 196.545 41.5064C196.531 41.8883 196.491 42.2689 196.424 42.6452C196.357 43.0074 196.336 43.3766 196.362 43.7441C196.367 43.9378 196.306 44.1274 196.189 44.2814C196.136 44.3563 196.066 44.417 195.984 44.4584C195.902 44.4998 195.811 44.5205 195.72 44.5189C193.716 44.5778 191.711 44.5992 189.705 44.583C187.699 44.5669 185.678 44.5166 183.64 44.4322Z" fill="black"/>
<path d="M49.4125 14.6761C49.5994 14.3449 49.741 13.9898 49.8334 13.6205C49.9494 13.1516 49.9632 12.6631 49.8739 12.1883C49.7846 11.7135 49.5942 11.2637 49.3159 10.8697C48.7777 10.0637 48.0635 9.62694 47.1924 9.57148C45.9159 9.48828 44.5256 10.2943 43.4267 11.1523C38.5122 7.94041 32.0262 5.45654 32.0262 5.45654C32.0262 5.45654 24.8864 7.83121 19.4579 11.9409C18.2952 10.8541 16.7496 9.92681 15.3524 10.8177C15.0021 11.0383 14.7087 11.3388 14.4958 11.6948C14.283 12.0508 14.1569 12.4523 14.1276 12.8665C14.0379 13.8043 14.326 14.8495 14.8297 15.8756C13.3255 17.2883 9.68918 21.6771 10.5931 22.9823C12.6148 25.8977 15.9527 34.1086 15.9975 34.4223C16.0467 34.7438 15.9859 35.0726 15.825 35.3548C15.6257 35.6663 15.3748 35.9413 15.0833 36.1678C14.4657 36.6722 11.8782 39.3571 11.478 40.1874C10.2067 42.8255 10.7207 44.1584 12.3181 44.9748C14.3105 45.8034 15.0419 45.1655 15.3092 44.5952C15.2851 45.1828 15.6094 46.0079 17.5155 46.2246C19.758 46.4811 20.31 45.637 20.3876 44.9159C20.6636 45.4446 21.4106 45.9559 23.3339 45.6543C25.7093 45.2886 25.661 44.051 25.592 43.6852C25.6851 44.0146 26.1095 45.0355 27.693 44.7842C29.6578 44.4722 29.9252 42.2258 29.8475 41.1528C30.6147 41.6239 31.5 41.8645 32.3988 41.8462C32.8218 41.8659 33.2451 41.8143 33.6512 41.6936C33.6512 42.6383 34.4067 44.8136 35.1726 45.1967C36.9183 46.0634 38.9366 44.1983 38.9366 44.1983C39.1315 44.6056 39.7525 46.4204 40.803 46.5054C41.876 46.748 43.6234 45.4966 43.6234 45.4966C43.6234 45.4966 58.0892 21.5575 58.0892 21.2299C58.0806 20.9421 51.5187 16.1928 49.4125 14.6761Z" fill="#F9C84B"/>
<path d="M49.4125 14.6761C49.5994 14.3449 49.741 13.9898 49.8334 13.6205C49.9494 13.1516 49.9632 12.6631 49.8739 12.1883C49.7846 11.7135 49.5942 11.2637 49.3159 10.8697C48.7777 10.0637 48.0635 9.62694 47.1924 9.57148C45.9159 9.48828 44.5256 10.2943 43.4267 11.1523C38.5122 7.94041 32.0262 5.45654 32.0262 5.45654C32.0262 5.45654 24.8864 7.83121 19.4579 11.9409C18.2952 10.8541 16.7496 9.92681 15.3524 10.8177C15.0021 11.0383 14.7087 11.3388 14.4958 11.6948C14.283 12.0508 14.1569 12.4523 14.1276 12.8665C14.0379 13.8043 14.326 14.8495 14.8297 15.8756C13.3255 17.2883 9.68918 21.6771 10.5931 22.9823C12.6148 25.8977 15.9527 34.1086 15.9975 34.4223C16.0467 34.7438 15.9859 35.0726 15.825 35.3548C15.6257 35.6663 15.3748 35.9413 15.0833 36.1678C14.4657 36.6722 11.8782 39.3571 11.478 40.1874C10.2067 42.8255 10.7207 44.1584 12.3181 44.9748C14.3105 45.8034 15.0419 45.1655 15.3092 44.5952C15.2851 45.1828 15.6094 46.0079 17.5155 46.2246C19.758 46.4811 20.31 45.637 20.3876 44.9159C20.6636 45.4446 21.4106 45.9559 23.3339 45.6543C25.7093 45.2886 25.661 44.051 25.592 43.6852C25.6851 44.0146 26.1095 45.0355 27.693 44.7842C29.6578 44.4722 29.9252 42.2258 29.8475 41.1528C30.6147 41.6239 31.5 41.8645 32.3988 41.8462C32.8218 41.8659 33.2451 41.8143 33.6512 41.6936C33.6512 42.6383 34.4067 44.8136 35.1726 45.1967C36.9183 46.0634 38.9366 44.1983 38.9366 44.1983C39.1315 44.6056 39.7525 46.4204 40.803 46.5054C41.876 46.748 43.6234 45.4966 43.6234 45.4966C43.6234 45.4966 58.0892 21.5575 58.0892 21.2299C58.0806 20.9421 51.5187 16.1928 49.4125 14.6761ZM42.3124 12.1073C42.0209 12.3847 41.7828 12.6273 41.6224 12.8007C39.6093 12.3153 28.8332 9.98748 20.9621 13.6673C20.8275 13.494 20.6464 13.2496 20.429 12.9896C30.3426 5.51894 33.6822 6.33881 42.3124 12.1073ZM15.1799 12.9688C15.2385 12.4107 15.4248 12.4332 15.8699 12.1524C17.5811 11.0587 19.1474 15.4457 19.1836 15.4839L19.4441 15.8773L20.2565 15.5116C28.4434 11.4088 39.2747 12.8544 42.3848 14.2549C42.459 14.2896 43.1352 14.5652 43.1352 14.5652L43.3508 14.3156C44.134 13.4143 45.8262 10.7536 47.5478 10.8645C48.0791 10.8975 48.2291 10.9425 48.5828 11.466C48.9916 12.0796 48.9588 12.7019 48.8001 13.3727C48.2999 15.4267 45.3415 17.108 45.3104 17.1253L44.6601 17.4581L44.7947 21.2715C42.9317 21.1761 39.3437 21.2403 37.5807 22.9268C37.0363 23.366 36.6261 23.9505 36.3974 24.6133C36.3974 24.6238 36.3974 24.6324 36.3853 24.6428C36.2921 24.9895 35.6453 26.4958 35.6453 26.4958C35.6453 26.4958 36.7786 27.4716 38.0982 27.1891C39.4178 26.9066 40.703 25.1316 40.5667 24.1609C40.4787 23.5369 40.132 23.0343 40.0492 22.7743C40.2672 22.723 40.4914 22.7031 40.715 22.7153L44.8378 22.9424L44.8809 24.1835C43.3422 27.2602 40.3528 31.4479 40.32 31.493L40.2217 31.623C40.2217 31.623 40.3321 36.1626 37.7722 37.3932C36.8338 37.8439 35.9592 37.8768 35.2106 37.5666C34.4083 37.2589 33.6786 36.7866 33.0681 36.1799L32.5972 34.9042C35.9816 32.8432 37.0822 30.9868 36.6458 30.4894C36.2093 29.9919 34.3532 30.9036 32.3057 31.0648C30.2581 31.226 28.3796 29.3107 28.4003 30.8256C28.4192 32.1863 31.6778 34.457 32.3453 34.9059L32.0814 36.1539C32.0814 36.1764 31.0464 37.759 28.4003 37.7399C26.0853 37.7243 24.8312 33.4291 25.0641 32.5139L19.9909 25.5806L19.501 22.835C19.501 22.835 23.66 23.1539 23.8635 23.1574C23.8928 23.4364 23.6082 24.8699 23.7221 25.3691C23.9411 26.3242 25.8197 27.1458 27.1721 27.1717C28.5952 27.2012 28.8539 26.4784 28.8539 26.4784C28.6228 25.4627 28.3002 24.934 28.0397 24.6584C25.7541 20.9335 19.2095 21.3356 19.2095 21.3356L18.773 18.7356C18.773 18.7356 14.8987 15.7335 15.1799 12.9688ZM36.8286 25.376C36.8841 25.5461 36.9933 25.6933 37.1396 25.7953C37.2859 25.8973 37.4614 25.9485 37.6394 25.9411C38.4639 25.896 38.8745 25.2564 38.9607 24.5198C39.0159 24.0518 38.6537 23.738 38.3811 23.5699C38.6567 23.3504 38.9669 23.1787 39.2988 23.062C39.4351 23.5058 40.0492 24.5041 39.2281 25.3327C38.1931 26.3727 37.874 26.6431 36.7441 26.3727C36.4129 26.2912 36.5699 25.8405 36.8355 25.376H36.8286ZM25.1314 25.2339C25.5333 25.8562 26.037 26.1803 26.7943 25.8544C27.16 25.6967 27.4343 25.4228 27.4222 25.0969C27.7965 25.3933 28.0898 25.7452 27.8897 26.0364C27.4601 26.6656 26.3699 26.3259 25.0313 25.7227C24.1136 25.3102 24.4379 23.9096 24.362 23.3654L25.2418 23.9998C25.1159 24.317 24.9002 24.8664 25.1383 25.2339H25.1314ZM27.6844 43.6488C26.3492 43.9695 25.1452 41.7092 25.1262 41.704C25.1072 41.6988 24.4052 43.5726 24.3224 43.68C24.0688 43.9972 23.2753 44.3612 22.8061 44.4219C21.4485 44.6143 20.3204 42.2934 20.3204 42.2934C20.3204 42.2934 19.3578 44.961 18.0278 44.9766C15.8078 45.0043 15.6767 42.1703 15.6767 42.1703C15.6767 42.1703 13.5273 44.2087 12.3992 43.2848C10.9157 42.0715 16.7703 36.3307 17.0273 35.8748C17.1574 35.6416 17.2489 35.3887 17.2982 35.126C16.7127 32.5129 15.854 29.9693 14.7365 27.5375C14.8255 27.6954 14.9494 27.8306 15.0988 27.9327C15.5024 28.2551 15.8043 28.4527 16.0786 28.4527C16.1163 28.4522 16.1538 28.4481 16.1907 28.4406C16.4098 28.3955 16.5875 28.2256 16.7669 27.8894C16.8181 27.8062 16.8484 27.7117 16.855 27.6142C16.8616 27.5166 16.8444 27.4188 16.8048 27.3295C16.6047 26.9014 15.9061 26.7471 15.8267 26.7315L15.775 26.7211L15.7267 26.7454C15.5662 26.8278 15.4015 26.9019 15.2333 26.9672C14.9435 27.0834 14.7331 27.1666 14.7038 27.3676C14.698 27.4126 14.7027 27.4583 14.7176 27.5011C13.0633 23.9634 11.4987 22.3011 11.4987 22.3011C11.7092 21.0149 14.5502 17.9435 15.4662 16.9832C16.0122 17.8238 16.6485 18.6016 17.3637 19.3024L18.7196 25.974L23.6186 33.1154C23.4133 34.3131 23.8566 35.7743 24.8261 37.083C25.7783 38.3639 27.0099 39.1803 28.1726 39.3363C28.3777 39.7122 28.628 40.0615 28.9178 40.3763C28.9402 41.2534 28.7591 43.3906 27.6913 43.6488H27.6844ZM32.3419 40.5739C31.0343 40.6554 30.127 39.9378 29.5819 39.2843C30.7589 39.0775 31.8144 38.431 32.5368 37.4747C32.8007 37.9098 34.1359 38.7383 35.6418 39.0347C35.2037 39.5668 34.2101 40.4595 32.3471 40.5739H32.3419ZM43.0058 43.2484C43.0058 43.2484 42.0364 45.0008 41.2981 44.8448C40.3597 44.6455 39.335 42.5239 39.335 42.5239C39.335 42.5239 36.92 44.6039 35.7867 43.8291C35.1536 43.3646 34.5654 41.7006 34.4533 41.3678C35.5987 40.7507 36.3801 39.7072 36.7493 39.1266C37.2406 39.1239 37.7266 39.0237 38.1793 38.8319C41.3723 37.4227 41.3567 35.4328 41.4292 33.0096C41.4378 32.6959 41.4482 32.3735 41.4637 32.0442C41.7914 31.6022 42.8592 30.1375 43.9822 28.4527C44.0357 28.4648 44.0891 28.4752 44.1409 28.4891C44.2599 28.5082 44.3789 28.5203 44.4962 28.5342C44.6135 28.548 44.7308 28.5342 44.8412 28.5342C45.2945 28.5173 45.741 28.418 46.1591 28.2412C46.9353 27.8975 47.6303 27.3924 48.1981 26.7592C48.3413 26.6136 48.462 26.4472 48.5931 26.293C48.727 26.1403 48.852 25.98 48.9674 25.8128L49.3124 25.3136L49.4849 25.064L49.635 24.804C49.8282 24.4574 50.0438 24.1107 50.2129 23.764L50.7304 22.6893L50.0852 23.686C49.8748 24.0205 49.6195 24.3239 49.3952 24.6411L49.2227 24.8751L49.0278 25.0952L48.6414 25.532C48.5118 25.6761 48.3742 25.8127 48.2291 25.9411C48.086 26.0694 47.9549 26.2115 47.8048 26.3293C47.2457 26.8132 46.5916 27.1735 45.8849 27.3867C45.5595 27.4804 45.2197 27.5127 44.8826 27.482C44.8033 27.4682 44.7239 27.4647 44.6463 27.4474C45.2794 26.4559 45.8866 25.4367 46.3454 24.5319L46.4093 24.4071L46.1195 17.888C47.074 17.3008 47.9372 16.5754 48.6811 15.7352C50.3612 16.9797 55.4327 20.7619 55.8019 21.3599C55.7967 21.3599 44.1926 41.2811 43.011 43.2484H43.0058Z" fill="black"/>
<path d="M30.8602 20.6527C30.8253 20.6779 30.7984 20.7128 30.7827 20.7531C30.7671 20.7934 30.7635 20.8374 30.7722 20.8797C30.8136 21.0773 31.0931 21.164 31.7175 21.3391C32.1264 21.4535 32.637 21.5956 32.8043 21.7533C32.8728 21.8215 32.9649 21.8606 33.0613 21.8625C33.1469 21.8608 33.2297 21.8316 33.2976 21.7793C33.6685 21.5072 33.9428 20.5192 33.6944 19.994C33.3908 19.3509 32.6145 19.0857 32.5818 19.0753L32.5386 19.0615L32.4955 19.0736C32.3661 19.1065 32.1505 19.3215 31.5123 19.9905C31.2552 20.2627 30.9896 20.5435 30.8602 20.6527Z" fill="black"/>
<path d="M39.7249 17.6037C40.1337 17.7181 40.6443 17.8602 40.8116 18.018C40.8802 18.0862 40.9722 18.1253 41.0686 18.1272C41.1542 18.1254 41.237 18.0963 41.305 18.044C41.6758 17.7718 41.9501 16.7838 41.7017 16.2586C41.3998 15.6156 40.6219 15.3504 40.5891 15.34L40.546 15.3261L40.5028 15.3382C40.3735 15.3712 40.1578 15.5861 39.5196 16.2552C39.2626 16.5273 39.0021 16.8081 38.8675 16.9173C38.8326 16.9426 38.8057 16.9774 38.7901 17.0177C38.7744 17.058 38.7708 17.102 38.7796 17.1444C38.821 17.342 39.1004 17.4286 39.7249 17.6037Z" fill="black"/>
<path d="M29.2611 16.9121C29.5802 17.2588 29.6682 17.2934 30.4859 17.2934C30.6135 17.2934 30.7325 17.2934 30.8429 17.2934C30.9533 17.2934 31.0154 17.2934 31.1034 17.2934C31.3604 17.2934 31.5519 17.2622 31.6658 17.108C31.7796 16.9537 31.7813 16.6798 31.6278 16.2153C31.2431 15.0401 30.096 15.2464 30.0839 15.2481L30.0494 15.2602C29.4302 15.5532 29.0541 15.9068 28.9886 16.2586C28.9711 16.3558 28.9777 16.4558 29.0077 16.5499C29.0378 16.6439 29.0905 16.729 29.1611 16.7977L29.2611 16.9121Z" fill="black"/>
<path d="M48.3603 28.0956H48.3361C47.9135 28.3279 47.6547 28.6156 47.6116 28.886C47.599 28.9619 47.6032 29.0397 47.6241 29.1137C47.645 29.1878 47.682 29.2562 47.7324 29.3142L47.7979 29.3922C48.0153 29.6608 48.0756 29.6938 48.6345 29.6938C48.7225 29.6938 48.807 29.6938 48.8795 29.6938H49.052C49.2245 29.6938 49.359 29.6695 49.4366 29.5464C49.5143 29.4234 49.516 29.1998 49.4125 28.8392C49.1624 27.9292 48.3689 28.0939 48.3603 28.0956Z" fill="black"/>
<path d="M35.5005 18.1879C35.5781 18.3612 35.6575 18.5484 35.9318 18.5484C35.9899 18.5471 36.0477 18.5395 36.1043 18.5259C36.5666 18.4271 36.9305 18.3162 37.0495 17.8742C37.1507 17.5574 37.1507 17.2168 37.0495 16.9C36.934 16.5308 36.0577 16.5378 35.6868 16.5534H35.6385L35.6006 16.5828C35.2142 16.8931 34.8726 17.2432 35.2935 17.8187C35.3775 17.9326 35.447 18.0567 35.5005 18.1879Z" fill="black"/>
<path d="M32.2576 24.6133H32.2111L32.1731 24.6428C31.7867 24.9531 31.4434 25.3032 31.8661 25.8787C31.9461 25.9912 32.0126 26.1128 32.0644 26.2409C32.1421 26.4143 32.2231 26.6015 32.4974 26.6015C32.5555 26.6002 32.6134 26.5927 32.6699 26.5789C33.1322 26.4801 33.4962 26.3692 33.6152 25.9272C33.7171 25.6106 33.7171 25.2697 33.6152 24.9531C33.5117 24.5908 32.6354 24.5977 32.2576 24.6133Z" fill="black"/>
<path d="M15.834 21.2143C15.7184 20.8451 14.8438 20.852 14.4729 20.8676H14.4246L14.3867 20.8971C14.0003 21.2074 13.6587 21.5575 14.0796 22.133C14.1601 22.2455 14.2272 22.3671 14.2797 22.4952C14.3574 22.6686 14.4367 22.8558 14.711 22.8558C14.7691 22.8545 14.827 22.847 14.8835 22.8332C15.3475 22.7344 15.7115 22.6235 15.8305 22.1815C15.9322 21.8674 15.9334 21.5291 15.834 21.2143Z" fill="black"/>
<path d="M18.7299 35.0238L18.5885 34.9406L18.5178 35.0879C18.4401 35.2508 17.7726 36.6982 18.1348 37.3707C18.184 37.4634 18.2553 37.5425 18.3423 37.6008C18.4293 37.6592 18.5292 37.695 18.6333 37.7052C18.8293 37.7339 19.027 37.7489 19.225 37.7503C19.9633 37.7503 20.4722 37.5111 20.7413 37.0379C21.0587 36.4746 19.4406 35.4415 18.7299 35.0238Z" fill="black"/>
<path d="M45.0518 30.8758L44.9259 30.8117L44.8638 30.9261C44.7931 31.0526 44.1962 32.1776 44.5188 32.701C44.5683 32.776 44.6344 32.8385 44.7119 32.8836C44.7894 32.9287 44.8762 32.9552 44.9656 32.961C45.1413 32.983 45.3181 32.9946 45.4951 32.9957C46.1558 32.9957 46.6112 32.8102 46.851 32.4428C47.1356 32.0042 45.6884 31.2 45.0518 30.8758Z" fill="black"/>
<path d="M33.1857 16.3072C33.3614 16.3292 33.5382 16.3408 33.7153 16.3418C34.3759 16.3418 34.8313 16.1564 35.0711 15.7872C35.3557 15.3504 33.9085 14.5461 33.2719 14.2272L33.146 14.1613L33.0822 14.2775C33.0132 14.404 32.4163 15.5289 32.7372 16.0524C32.7874 16.1266 32.854 16.1882 32.9318 16.2324C33.0096 16.2766 33.0965 16.3022 33.1857 16.3072Z" fill="black"/>
<path d="M23.1893 19.8969C23.3644 19.9189 23.5407 19.9305 23.7171 19.9316C24.3795 19.9316 24.8332 19.7461 25.073 19.3786C25.3576 18.9401 23.9103 18.1358 23.2755 17.8187L23.1479 17.7545L23.0858 17.8689C23.0168 17.9954 22.4182 19.1204 22.7408 19.6438C22.7911 19.7179 22.8578 19.7792 22.9356 19.8231C23.0134 19.867 23.1002 19.8923 23.1893 19.8969Z" fill="black"/>
<path d="M19.0215 33.3198C19.1344 33.4226 19.234 33.539 19.3182 33.6665C19.3924 33.7722 19.4614 33.871 19.589 33.878H19.6011C19.7391 33.878 19.8529 33.7636 20.072 33.5105C20.3635 33.1725 20.4498 32.7687 20.2963 32.4567C20.1427 32.1447 19.8133 31.9991 19.3975 32.0251C19.2492 32.0337 18.9249 32.3145 18.8197 32.6283C18.7772 32.7503 18.7738 32.8826 18.81 33.0066C18.8462 33.1307 18.9202 33.2402 19.0215 33.3198Z" fill="black"/>
<path d="M18.2539 30.1791H18.2659C18.4039 30.1791 18.5178 30.0647 18.7369 29.8116C19.0284 29.4753 19.1129 29.0715 18.9611 28.7595C18.8093 28.4475 18.4781 28.3019 18.0624 28.3261C17.914 28.3348 17.5897 28.6156 17.4845 28.9311C17.4414 29.0533 17.4377 29.1861 17.4739 29.3105C17.5101 29.435 17.5845 29.5448 17.6863 29.6244C17.7991 29.724 17.8988 29.8376 17.983 29.9624C18.0572 30.0733 18.1262 30.1721 18.2539 30.1791Z" fill="black"/>
<path d="M27.0064 19.6542C26.9456 19.7801 26.9141 19.9182 26.9141 20.0581C26.9141 20.198 26.9456 20.3361 27.0064 20.462C27.2237 20.8502 27.7102 21.1778 27.8188 20.7705C27.9275 20.3632 28.0897 19.4358 27.0064 19.6542Z" fill="black"/>
<path d="M41.4 18.7841C41.3392 18.9103 41.3076 19.0487 41.3076 19.1888C41.3076 19.329 41.3392 19.4674 41.4 19.5936C41.6173 19.9818 42.1038 20.3094 42.2124 19.9004C42.3211 19.4913 42.4833 18.5674 41.4 18.7841Z" fill="black"/>
<path d="M27.3308 15.9553C27.4412 15.548 27.605 14.6224 26.5079 14.8408C26.4462 14.9664 26.4141 15.1046 26.4141 15.2447C26.4141 15.3848 26.4462 15.523 26.5079 15.6485C26.7374 16.0368 27.2221 16.3644 27.3308 15.9553Z" fill="black"/>
<path d="M24.9381 21.5315C25.1572 21.9198 25.6505 22.2474 25.7609 21.84C25.8713 21.4327 26.0352 20.5054 24.9381 20.7238C24.8764 20.8493 24.8442 20.9875 24.8442 21.1276C24.8442 21.2677 24.8764 21.4059 24.9381 21.5315Z" fill="black"/>
<path d="M28.6783 23.7883C29.0509 23.9512 29.6064 24.1696 29.7133 23.7883C29.8203 23.4069 29.6047 23.2007 29.4529 23.1903C28.6507 23.1348 28.3057 23.6253 28.6783 23.7883Z" fill="black"/>
<path d="M42.7212 38.0224C41.919 37.9669 41.5758 38.4575 41.9466 38.6204C42.3175 38.7833 42.8747 39.0017 42.9816 38.6204C43.0886 38.2391 42.8747 38.0328 42.7212 38.0224Z" fill="black"/>
<path d="M17.471 31.6126C16.6689 31.5571 16.3256 32.0476 16.6982 32.2106C17.0708 32.3735 17.6245 32.5919 17.7332 32.2106C17.8419 31.8292 17.6245 31.623 17.471 31.6126Z" fill="black"/>
<path d="M14.4418 19.4133C14.8144 19.5763 15.3681 19.7929 15.4768 19.4133C15.5855 19.0337 15.3681 18.824 15.2163 18.8136C14.4125 18.7616 14.0692 19.2504 14.4418 19.4133Z" fill="black"/>
<path d="M36.0803 21.8625C36.7513 22.3201 36.6495 22.5558 37.1325 21.8625C37.6155 21.1692 37.2757 20.3788 36.12 20.4238C36.12 20.4238 35.4093 21.4066 36.0803 21.8625Z" fill="black"/>
<path d="M44.1686 36.6253C43.9133 37.5214 44.1134 38.1489 44.9258 37.492C45.7383 36.835 45.8435 36.452 45.6555 36.0221C45.4675 35.5922 44.4929 35.483 44.1686 36.6253Z" fill="black"/>
<path d="M21.3762 33.8711C21.3762 33.8711 20.2394 35.1035 20.7811 35.3756C21.3227 35.6477 21.7022 35.4831 21.9178 34.9406C22.1335 34.398 21.3762 33.8711 21.3762 33.8711Z" fill="black"/>
<path d="M17.0997 24.7676C17.3705 24.1713 16.5477 23.5924 16.5477 23.5924C15.3988 23.9391 15.6852 24.9791 15.9112 25.0744C16.1371 25.1697 16.8289 25.3656 17.0997 24.7676Z" fill="black"/>
<path d="M12.8237 23.5525C13.2567 24.3516 13.6362 24.4954 13.8863 23.9997C14.1365 23.504 12.8237 23.5525 12.8237 23.5525Z" fill="black"/>
<path d="M34.7485 10.1348C35.1815 9.20917 34.2621 9.35477 34.2621 9.35477C32.7458 9.50037 32.5285 10.6201 33.0166 11.1141C33.5048 11.6081 34.3156 11.0586 34.7485 10.1348Z" fill="black"/>
<path d="M28.9799 10.322C29.5509 10.7328 29.7682 10.9997 30.0925 10.322C30.4168 9.64424 29.3767 8.72037 28.678 9.75344C28.4624 10.0758 28.4072 9.9129 28.9799 10.322Z" fill="black"/>
<path d="M26.3925 11.5856C26.6897 11.5187 26.9636 11.3733 27.1861 11.1644C27.4379 10.9685 26.9083 10.7362 26.9083 10.7362C26.781 10.7218 26.6522 10.7427 26.5357 10.7964C26.4193 10.8502 26.3197 10.9349 26.2476 11.0413C26.032 11.4036 26.032 11.6566 26.3925 11.5856Z" fill="black"/>
<path d="M37.8343 11.5977C38.2673 11.8629 38.7727 11.6566 38.7744 11.1644C38.7761 10.6721 38.231 10.7362 38.231 10.7362C37.7774 10.582 37.4013 11.3308 37.8343 11.5977Z" fill="black"/>
</svg>
